<?xml version="1.0" encoding="utf-8"?>
<!-- Generator: Adobe Illustrator 21.1.0, SVG Export Plug-In . SVG Version: 6.00 Build 0)  -->
<svg version="1.1" id="Layer_1" xmlns="http://www.w3.org/2000/svg" xmlns:xlink="http://www.w3.org/1999/xlink" x="0px" y="0px"
	 viewBox="0 0 238.9 212.2" style="enable-background:new 0 0 238.9 212.2;" xml:space="preserve">
<style type="text/css">
	.st0{clip-path:url(#SVGID_2_);fill:#E24301;}
</style>
<g>
	<defs>
		<rect id="SVGID_1_" x="5" y="3" width="229.2" height="204.1"/>
	</defs>
	<clipPath id="SVGID_2_">
		<use xlink:href="#SVGID_1_"  style="overflow:visible;"/>
	</clipPath>
	<path class="st0" d="M163.1,169.7c-61.5,0-103-38.8-103-97.2v-0.7c0-27.3,9.5-51.3,25.8-68.9c-42.1,14.8-72.1,53.5-72.1,98.8
		c0,22.9,7.7,44.1,20.7,61.4L5,205.7l46.8-24.3c19.3,16,44.6,25.7,72.2,25.7c40.2,0,75.3-20.6,94.6-51.2
		C203.7,164.6,185.6,169.7,163.1,169.7"/>
	<path class="st0" d="M168.6,114.8c14.1,0,25.8-6.5,38.1-19.2l26.4,21c0.7-4.8,1.1-9.7,1.1-14.7c0-4.1-0.3-8.1-0.7-12.1H133.2
		C138.7,106.2,151.8,114.8,168.6,114.8"/>
	<path class="st0" d="M156.9,27.2c-13,0-22.3,11-24.7,28.2H183C181.3,37.5,170.7,27.2,156.9,27.2"/>
</g>
</svg>
